<?xml version="1.0" encoding="UTF-8"?>
<svg width="2045" height="2055" viewBox="0 0 2045 2055" xmlns="http://www.w3.org/2000/svg">
    <g id="808792file">
        <g id="Layer1"/>
        <g id="IsolationMode">
            <g id="Group">
                <path id="Path" fill="#ffe100" stroke="none" d="M 1734.80127 316.830078 C 1922.019775 504.04834 2027.197998 757.970947 2027.197998 1022.737793 C 2027.197998 1287.504639 1922.019775 1541.427246 1734.80127 1728.645508 C 1547.583008 1915.863892 1293.6604 2021.042236 1028.893555 2021.042236 C 764.126709 2021.042236 510.204102 1915.864014 322.985718 1728.645752 C 135.767212 1541.427246 30.589111 1287.504639 30.589111 1022.737793 C 30.589111 757.970947 135.767334 504.04834 322.985718 316.829834 C 510.204102 129.611572 764.126709 24.43335 1028.893555 24.43335 C 1293.6604 24.43335 1547.583008 129.611572 1734.80127 316.830078 Z"/>
                <path id="path1" fill="#7eb8e4" stroke="none" d="M 33.939941 1104.919922 C 34.02002 1105.870117 34.099976 1106.820068 34.180054 1107.76001 C 46.160034 1246.649902 87.050049 1382.27002 154.660034 1505.080078 C 155.410034 1506.439941 156.170044 1507.800049 156.930054 1509.159912 C 157.910034 1510.919922 158.890015 1512.669922 159.880005 1514.419922 C 224.459961 1628.840088 312.459961 1731.800049 422.050049 1815.480957 C 423.22998 1816.379883 424.400024 1817.281006 425.579956 1818.160889 C 427.26001 1819.450928 428.949951 1820.730957 430.650024 1821.990967 C 452.430054 1838.250977 475.040039 1853.760986 498.469971 1868.460938 C 562.069946 1908.351074 628.439941 1940.200928 696.379883 1964.260986 C 698.719971 1965.091064 701.070068 1965.910889 703.409912 1966.720947 C 705.560059 1967.470947 707.709961 1968.200928 709.870117 1968.930908 C 709.969971 1968.960938 710.070068 1969.000977 710.169922 1969.031982 C 712.610107 1969.862061 715.060059 1970.672119 717.51001 1971.481934 C 719.879883 1972.260986 722.26001 1973.031982 724.629883 1973.791992 C 724.639893 1973.802002 724.639893 1973.802002 724.649902 1973.802002 C 727.300049 1974.653076 729.949951 1975.48291 732.600098 1976.312012 C 733.680908 1976.653076 734.77002 1976.98291 735.850098 1977.322998 C 737.320068 1977.771973 738.780029 1978.221924 740.25 1978.663086 C 741.169922 1978.943115 742.090088 1979.2229 743.01001 1979.49292 C 744.919922 1980.062012 746.830078 1980.633057 748.73999 1981.193115 C 751.030029 1981.863037 753.320068 1982.521973 755.620117 1983.181885 C 756.599121 1983.461914 757.580078 1983.73291 758.560059 1984.011963 C 760.409912 1984.532959 762.26001 1985.052002 764.120117 1985.552002 C 765.23999 1985.863037 766.370117 1986.172119 767.48999 1986.471924 C 832.909912 2004.251953 899.370117 2015.102051 965.860107 2019.23291 L 965.860107 2019.083008 L 965.860107 2013.603027 L 965.860107 1616.673096 C 968.320068 1616.462891 970.77002 1616.2229 973.219971 1615.9729 C 970.76001 1615.913086 968.300049 1615.853027 965.860107 1615.783936 C 959.840088 1615.624023 953.879883 1615.424072 947.949951 1615.183105 C 841.439941 1610.883057 748.919922 1594.333008 669.820068 1557.212891 C 158.900024 1317.433105 154.900024 715.953125 183.199951 492.292969 C 63.949951 682.419922 16.630005 897.25 33.939941 1104.919922 Z"/>
                <path id="path2" fill="#27aae1" stroke="none" d="M 33.939941 1104.919922 C 34.02002 1105.870117 34.099976 1106.820068 34.180054 1107.76001 C 46.26001 1250.939941 88.550049 1385.51001 154.660034 1505.080078 C 155.410034 1506.439941 156.170044 1507.800049 156.930054 1509.159912 C 157.910034 1510.919922 158.890015 1512.669922 159.880005 1514.419922 C 226.310059 1631.580078 315.75 1733.980957 422.050049 1815.480957 C 423.22998 1816.379883 424.400024 1817.281006 425.579956 1818.160889 C 427.26001 1819.450928 428.949951 1820.730957 430.650024 1821.990967 C 510.75 1882.051025 600.180054 1930.331055 696.379883 1964.260986 C 698.719971 1965.091064 701.070068 1965.910889 703.409912 1966.720947 C 705.560059 1967.470947 707.709961 1968.200928 709.870117 1968.930908 C 709.969971 1968.960938 710.070068 1969.000977 710.169922 1969.031982 C 712.610107 1969.862061 715.060059 1970.672119 717.51001 1971.481934 C 719.879883 1972.260986 722.26001 1973.031982 724.629883 1973.791992 C 724.639893 1973.802002 724.639893 1973.802002 724.649902 1973.802002 C 727.300049 1974.653076 729.949951 1975.48291 732.600098 1976.312012 C 733.680908 1976.653076 734.77002 1976.98291 735.850098 1977.322998 C 737.320068 1977.771973 738.780029 1978.221924 740.25 1978.663086 C 741.169922 1978.943115 742.090088 1979.2229 743.01001 1979.49292 C 744.919922 1980.062012 746.830078 1980.633057 748.73999 1981.193115 C 751.030029 1981.863037 753.320068 1982.521973 755.620117 1983.181885 C 756.599121 1983.461914 757.580078 1983.73291 758.560059 1984.011963 C 760.409912 1984.532959 762.26001 1985.052002 764.120117 1985.552002 C 765.23999 1985.863037 766.370117 1986.172119 767.48999 1986.471924 C 831.310059 2003.74292 897.649902 2014.842041 965.860107 2019.082031 L 965.860107 1616.672119 C 956.830078 1617.491943 947.800049 1618.102051 938.77002 1618.511963 C 440.430054 1640.922119 120.319946 1216.13208 30.609985 1022.741943 C 30.609985 1050.409912 31.73999 1077.820068 33.939941 1104.919922 Z"/>
                <path id="path3" fill="#1c75bc" stroke="none" d="M 947.949951 1615.179932 C 944.888916 1616.310059 941.820068 1617.419922 938.77002 1618.51001 C 577 1747.719971 286.209961 1587.199951 138.819946 1472.040039 C 305.380005 1797.320068 625.810059 1992.280029 965.860107 2013.600098 L 965.860107 1616.669922 C 968.320068 1616.459961 970.77002 1616.219971 973.219971 1615.969971 C 970.76001 1615.909912 968.300049 1615.850098 965.860107 1615.781006 L 965.860107 1608.341064 C 959.870117 1610.699951 953.899902 1612.97998 947.949951 1615.179932 Z"/>
                <path id="path4" fill="#7eb8e4" stroke="none" d="M 1388.031006 1557.209961 C 1308.929932 1594.330078 1216.409912 1610.879883 1109.899902 1615.179932 C 1103.969971 1615.419922 1098.01001 1615.620117 1091.98999 1615.781006 C 1089.551025 1615.850098 1087.091064 1615.910889 1084.629883 1615.969971 C 1087.080078 1616.219971 1089.531006 1616.459961 1091.98999 1616.669922 L 1091.98999 2013.600098 L 1091.98999 2019.080078 L 1091.98999 2019.22998 C 1158.47998 2015.099121 1224.939941 2004.25 1290.360107 1986.468994 C 1291.47998 1986.168945 1292.610107 1985.860107 1293.72998 1985.549072 C 1295.590088 1985.049072 1297.439941 1984.529053 1299.291016 1984.009033 C 1300.27002 1983.72998 1301.25 1983.458984 1302.22998 1983.178955 C 1304.531006 1982.519043 1306.820068 1981.860107 1309.110107 1981.189941 C 1311.02002 1980.628906 1312.929932 1980.059082 1314.840088 1979.48999 C 1315.76001 1979.218994 1316.679932 1978.939941 1317.600098 1978.659912 C 1319.070068 1978.219971 1320.531006 1977.769043 1321.999023 1977.320068 C 1323.079102 1976.97998 1324.168945 1976.649902 1325.249023 1976.309082 C 1327.898926 1975.47998 1330.550049 1974.649902 1333.199951 1973.799072 C 1333.209961 1973.799072 1333.209961 1973.799072 1333.219971 1973.789063 C 1335.590088 1973.029053 1337.969971 1972.259033 1340.340088 1971.479004 C 1342.790039 1970.667969 1345.239014 1969.858887 1347.679932 1969.029053 C 1347.781006 1968.999023 1347.879883 1968.958984 1347.97998 1968.927979 C 1350.139893 1968.198975 1352.291016 1967.468018 1354.439941 1966.718018 C 1356.781006 1965.907959 1359.129883 1965.087891 1361.469971 1964.258057 C 1429.408936 1940.197998 1495.781006 1908.3479 1559.379883 1868.458008 C 1582.810059 1853.758057 1605.418945 1838.248047 1627.199951 1821.988037 C 1628.898926 1820.728027 1630.590088 1819.447998 1632.269043 1818.157959 C 1633.449951 1817.278076 1634.620117 1816.37793 1635.799072 1815.478027 C 1745.388916 1731.797119 1833.388916 1628.836914 1897.968994 1514.416992 C 1898.958984 1512.666992 1899.938965 1510.916992 1900.917969 1509.156982 C 1901.678955 1507.797119 1902.438965 1506.437012 1903.188965 1505.076904 C 1970.799072 1382.266113 2011.688965 1246.646973 2023.667969 1107.75708 C 2023.748047 1106.816895 2023.827881 1105.866943 2023.907959 1104.916992 C 2041.218994 897.24707 1993.897949 682.416992 1874.647949 492.287109 C 1902.950928 715.949951 1898.950928 1317.429932 1388.031006 1557.209961 Z"/>
                <path id="path5" fill="#27aae1" stroke="none" d="M 1293.72998 1985.550049 C 1295.590088 1985.050049 1297.439941 1984.530029 1299.291016 1984.01001 C 1300.27002 1983.730957 1301.25 1983.459961 1302.22998 1983.179932 C 1304.531006 1982.52002 1306.820068 1981.861084 1309.110107 1981.190918 C 1311.02002 1980.629883 1312.929932 1980.060059 1314.840088 1979.490967 C 1315.76001 1979.219971 1316.679932 1978.940918 1317.600098 1978.660889 C 1319.070068 1978.220947 1320.531006 1977.77002 1321.999023 1977.321045 C 1323.079102 1976.980957 1324.168945 1976.650879 1325.249023 1976.310059 C 1327.898926 1975.480957 1330.550049 1974.650879 1333.199951 1973.800049 C 1333.209961 1973.800049 1333.209961 1973.800049 1333.219971 1973.790039 C 1335.590088 1973.030029 1337.969971 1972.26001 1340.340088 1971.47998 C 1342.790039 1970.668945 1345.239014 1969.860107 1347.679932 1969.030029 C 1347.781006 1969 1347.879883 1968.959961 1347.97998 1968.928955 C 1350.139893 1968.199951 1352.291016 1967.468994 1354.439941 1966.718994 C 1356.781006 1965.908936 1359.129883 1965.089111 1361.469971 1964.259033 C 1457.668945 1930.329102 1547.100098 1882.049072 1627.199951 1821.989014 C 1628.898926 1820.729004 1630.590088 1819.448975 1632.269043 1818.158936 C 1633.449951 1817.279053 1634.620117 1816.378906 1635.799072 1815.479004 C 1742.099121 1733.979004 1831.539063 1631.579102 1897.968994 1514.417969 C 1898.958984 1512.667969 1899.938965 1510.917969 1900.917969 1509.157959 C 1901.678955 1507.798096 1902.438965 1506.437988 1903.188965 1505.077881 C 1969.299072 1385.508057 2011.589111 1250.937988 2023.667969 1107.758057 C 2023.748047 1106.818115 2023.827881 1105.86792 2023.907959 1104.917969 C 2026.10791 1077.818115 2027.238037 1050.407959 2027.238037 1022.738037 C 1937.529053 1216.12793 1617.417969 1640.917969 1119.077881 1618.508057 C 1110.049072 1618.0979 1101.018066 1617.488037 1091.988037 1616.667969 L 1091.988037 2019.077881 C 1160.198975 2014.837891 1226.539063 2003.738037 1290.35791 1986.468018 C 1291.47998 1986.169922 1292.610107 1985.860107 1293.72998 1985.550049 Z"/>
                <path id="path6" fill="#1c75bc" stroke="none" d="M 1919.031006 1472.040039 C 1771.639893 1587.199951 1480.850098 1747.719971 1119.080078 1618.51001 C 1116.031006 1617.419922 1112.960938 1616.310059 1109.899902 1615.179932 C 1103.950928 1612.980957 1097.97998 1610.700928 1091.98999 1608.340088 L 1091.98999 1615.780029 C 1089.551025 1615.849121 1087.091064 1615.909912 1084.629883 1615.968994 C 1087.080078 1616.218994 1089.531006 1616.458984 1091.98999 1616.668945 L 1091.98999 2013.599121 C 1432.041016 1992.280029 1752.470947 1797.320068 1919.031006 1472.040039 Z"/>
                <path id="path7" fill="none" stroke="none" d="M 965.860107 1616.669922 C 968.320068 1616.459961 970.77002 1616.219971 973.219971 1615.969971 C 970.76001 1615.909912 968.300049 1615.850098 965.860107 1615.781006 L 965.860107 1616.669922 Z"/>
                <path id="path8" fill="#1c75bc" stroke="none" d="M 1366.538086 1745.300049 C 1366.538086 1897.049561 1217.033691 2020.066895 1032.611084 2020.066895 C 848.188232 2020.066895 698.684082 1897.049561 698.684082 1745.300049 C 698.684082 1593.550293 848.188232 1470.532959 1032.611084 1470.532959 C 1217.033691 1470.532959 1366.538086 1593.550293 1366.538086 1745.300049 Z"/>
                <g id="g1">
                    <g id="g2">
                        <path id="path9" fill="#000000" stroke="none" d="M 956.035889 1589.684082 C 956.035889 1605.604248 943.130127 1618.51001 927.209961 1618.51001 C 911.289795 1618.51001 898.384033 1605.604248 898.384033 1589.684082 C 898.384033 1573.763916 911.289795 1560.85791 927.209961 1560.85791 C 943.130127 1560.85791 956.035889 1573.763916 956.035889 1589.684082 Z"/>
                        <path id="path10" fill="#000000" stroke="none" d="M 1166.839111 1589.684082 C 1166.839111 1605.604248 1153.933105 1618.51001 1138.012939 1618.51001 C 1122.092773 1618.51001 1109.187012 1605.604248 1109.187012 1589.684082 C 1109.187012 1573.763916 1122.092773 1560.85791 1138.012939 1560.85791 C 1153.933105 1560.85791 1166.839111 1573.763916 1166.839111 1589.684082 Z"/>
                    </g>
                    <g id="g3">
                        <path id="path11" fill="#000000" stroke="none" d="M 1032.611084 1618.51001 L 963.238037 1681.516113 L 1101.983887 1681.516113 Z"/>
                        <path id="path12" fill="#000000" stroke="none" d="M 963.238037 1691.516113 L 1032.611084 1754.520996 L 1101.983887 1691.516113 Z"/>
                    </g>
                </g>
            </g>
        </g>
        <g id="Layer5"/>
    </g>
</svg>
